<svg xmlns="http://www.w3.org/2000/svg" width="163.898" height="143.743" preserveAspectRatio="xMidYMid" viewBox="0 0 218.531 191.657"><defs><style>.cls-1 { fill: #b1b1b1; } .cls-1, .cls-2 { opacity: 0.1; } .cls-1, .cls-10, .cls-2, .cls-3, .cls-4, .cls-5, .cls-9 { fill-rule: evenodd; } .cls-2 { fill: #b7b7b7; } .cls-3 { fill: #615f44; } .cls-4 { fill: #2c2410; } .cls-5, .cls-8 { fill: #fad700; } .cls-10, .cls-5, .cls-6, .cls-7, .cls-8, .cls-9 { opacity: 0.5; } .cls-6 { fill: #167cdf; } .cls-7 { fill: #3dc5ec; } .cls-9 { fill: #4ec2e2; } .cls-10 { fill: #ec5455; stroke: #d7282c; stroke-width: 1px; }</style></defs><path d="M142.24.77c34.7-8.18 75.44 48.06 76.1 92.92 0 0 9.87 117.4-118.88 95.13-66.8-11.56-90.5-45.12-96.07-66.9 0 0-37.73-79.5 138.84-121.16z" class="cls-1"/><path d="M68.58 118.22c-3.2.6-11.93 3.24-16 7.03-2.56 2.4 2 6 2 6s5.7.7 9.02 4c4.4 4.42-1.72 19.98 40.03 15 .2-.03 11.04-4.3 20-5.04-2.28.2 25.83 3.3 39.02 1.97 6.04-.6 9.1-6.58 12-10.04 2.2-2.62 5-3 5-3s10.48-4.33 9-8.03c-1.53-3.8-11.4-6.12-16.87-6.88-5.48-.77-94.57-2.6-103.2-1z" class="cls-2"/><path d="M146.78 76.22s-2.02 5.52-7 11c-8.84 9.73-23 22-23 22l-17-16 26-26 9-5 15-1-3 15zm-20 1c-3.3 0-6 2.46-6 5.5s2.7 5.5 6 5.5 6-2.46 6-5.5-2.7-5.5-6-5.5zM100.78 80.22h11l-12 13-10-1 11-12zM116.78 111.22l14-13-1 11s-12.58 11.4-12 11c.58-.4-1-9-1-9zM96.78 100.22l4-3 12 11-2 5-14-13z" class="cls-3"/><path d="M148.93 75.82c-1.68 4.87-4.5 9.37-8.16 13.02l-8.34 8.3-1.56 12c-.03.28-.16.54-.35.73l-11.62 11.57c-.23.24-.56.37-.88.37-.13 0-.25 0-.37-.05-.45-.14-.78-.5-.86-.96l-1.64-8.76-1.72-1.72-2 3.66c-.18.35-.52.58-.9.64-.07 0-.13 0-.2 0-.32 0-.64-.12-.88-.35L95.53 100.4c-.28-.3-.4-.68-.35-1.07.05-.4.3-.73.64-.92l3.67-1.97-1.73-1.72L89 93.1c-.47-.1-.84-.42-.98-.87-.14-.44-.02-.92.3-1.25L99.95 79.4c.2-.18.45-.3.73-.34l12.04-1.55 8.36-8.3c3.65-3.65 8.17-6.46 13.06-8.14 4.9-1.67 10.2-2.22 15.32-1.6.57.08 1.02.53 1.1 1.1.62 5.1.07 10.4-1.6 15.26zM118.83 118l9.6-9.6 1.1-8.36-11.86 11.8 1.15 6.16zM98.48 99.8l11.54 11.52 1.55-2.84-10.26-10.2-2.85 1.53zm2.9-18.32l-9.62 9.6 6.18 1.13 11.86-11.8-8.4 1.08zm21.43-10.52l-22.68 22.6 16.17 16.1L139 87.07c3.3-3.27 5.85-7.3 7.43-11.68-2.93-.56-5.63-2-7.75-4.1-2.13-2.1-3.55-4.8-4.12-7.72-4.4 1.56-8.44 4.12-11.73 7.4zm25.32-9.12c-3.74-.34-7.56 0-11.18.97.43 2.54 1.64 4.9 3.48 6.72 1.83 1.82 4.2 3.03 6.73 3.46.98-3.6 1.3-7.4.97-11.14zm-15.8 26.45c-1.48 1.46-3.43 2.2-5.37 2.2-1.95 0-3.9-.74-5.37-2.2-2.96-2.96-2.96-7.76 0-10.7 2.97-2.96 7.8-2.96 10.75 0 2.96 2.94 2.96 7.74 0 10.7zm-1.77-8.95c-1-1-2.3-1.48-3.6-1.48-1.3 0-2.6.5-3.6 1.48-2 1.98-2 5.2 0 7.18 1.98 1.97 5.2 1.97 7.2 0 1.98-1.98 1.98-5.2 0-7.18zm-38.83 32.1c.5.48.5 1.27 0 1.76l-4.83 4.83c-.25.25-.57.37-.9.37-.3 0-.63-.13-.88-.37-.48-.48-.48-1.28 0-1.76l4.84-4.82c.5-.5 1.3-.5 1.77 0zm.66-1c.02.02.03.03 0 0 0-.03 0-.02 0 0-.3-.5-.25-1.14.15-1.56.37-.4.98-.5 1.46-.26.47.23.75.73.7 1.24-.06.52-.44.96-.95 1.1-.5.1-1.04-.1-1.34-.53zm3.7-2.1c-.3 0-.63-.1-.88-.36-.5-.5-.5-1.28 0-1.77l.67-.67c.47-.48 1.27-.48 1.76 0 .5.5.5 1.28 0 1.77L97 108c-.25.24-.57.36-.9.36zm3.2.63c.5-.5 1.3-.5 1.78 0 .5.48.5 1.27 0 1.76l-10.74 10.7c-.25.25-.57.37-.9.37-.3 0-.63-.1-.87-.36-.5-.48-.5-1.27 0-1.76l10.74-10.7zm-6.64 13.44c.5-.48 1.28-.48 1.77 0 .5.5.5 1.28 0 1.77l-.67.65c-.24.25-.56.37-.88.37-.32 0-.64-.12-.9-.37-.48-.48-.48-1.27 0-1.76l.68-.67zm3.54-3c.5 0 .97.3 1.15.76.23.54.04 1.17-.44 1.5-.43.3-1.05.3-1.48-.04-.4-.33-.58-.9-.4-1.4.18-.5.66-.83 1.18-.83zm1.15.76c-.03-.07.04.08 0 0zm5.38-7.8c.5-.48 1.28-.48 1.77 0 .5.5.5 1.28 0 1.77l-4.84 4.82c-.24.25-.56.37-.88.37-.32 0-.64-.12-.9-.37-.48-.48-.48-1.27 0-1.76l4.85-4.8z" class="cls-4"/><path d="M194.1 93.22c-2.76 0-5-2.24-5-5s2.24-5 5-5c2.78 0 5.03 2.24 5.03 5s-2.25 5-5.02 5zm0-8c-1.66 0-3 1.34-3 3s1.34 3 3 3c1.68 0 3.03-1.34 3.03-3s-1.35-3-3.02-3z" class="cls-5"/><circle cx="100.281" cy="59.719" r="2.5" class="cls-6"/><circle cx="170.281" cy="83.719" r="2.5" class="cls-7"/><circle cx="152.093" cy="102.219" r="2" class="cls-8"/><path d="M129.34 40.22c-2.48 0-4.5-2.02-4.5-4.5 0-2.5 2.02-4.5 4.5-4.5 2.5 0 4.5 2 4.5 4.5 0 2.48-2 4.5-4.5 4.5zm0-7c-1.38 0-2.5 1.12-2.5 2.5s1.12 2.5 2.5 2.5 2.5-1.12 2.5-2.5-1.12-2.5-2.5-2.5z" class="cls-9"/><path d="M174.3 51.7s-.62 1.74 0 3.02c.7 1.4 1.64 3.37 1.64 3.37s-1.34-1.02-2.64-.38c-1.4.68-3.77 2-3.77 2s1.4-1.7.76-3c-.68-1.38-2.4-3.4-2.4-3.4s2 1.08 3.4.4c1.28-.63 3-2.03 3-2.03zM71.1 49.8s.38 2.32 1.85 3.35c1.64 1.14 3.88 2.72 3.88 2.72s-2.1-.3-3.14 1.22c-1.14 1.6-2.96 4.52-2.96 4.52s.52-2.73-1-3.8c-1.6-1.1-4.74-2.27-4.74-2.27s2.87-.03 4-1.66c1.05-1.5 2.1-4.1 2.1-4.1z" class="cls-10"/></svg>