<svg xmlns="http://www.w3.org/2000/svg" width="144" height="146"><defs><linearGradient id="a" x1="74.884%" x2="30.52%" y1="-21.326%" y2="113.481%"><stop offset="0%" stop-color="#AAEDE4"/><stop offset="100%" stop-color="#C5DDF3"/></linearGradient><linearGradient id="b" x1="5.268%" x2="82.347%" y1="-5.974%" y2="108.296%"><stop offset="0%" stop-color="#35B6A6"/><stop offset="100%" stop-color="#236CAD"/></linearGradient></defs><g fill="none" fill-rule="evenodd"><path fill="url(#a)" d="M65.3 132.1c-17.2-5.4-50.82-16.51-53.75-41.96-2.94-25.44.39-41.82 17.48-64.38C46.16 3.16 63.08-4.4 83.86-6.57c58.97-6.1 46.05 53.58 49.36 87.47 4.18 42.86-20.41 49.89-22.24 50.76-2.78 1.34-23.14 7.54-45.69.45z" transform="rotate(90 72.146 64.223)"/><path fill="url(#b)" d="M135.01 94.37c4.37-17.73-6.77-32.7-13.6-40.59-6.82-7.89-17.61-17.95-37.83-40.56-20.22-22.6-42.86-9.07-49.62-4.73-3.06 1.97-19.01 16.95-25.63 32.54C2.2 55.5-6.34 100.2 20.37 128.22c23.65 24.79 44.7 16.2 51.9 14.3 6.19-1.63 54-12.63 62.74-48.15z" transform="rotate(-180 69 73)"/><path fill="#FFF" d="M49.26 80.59h2.52a24.3 24.3 0 017.92-33.14 6.83 6.83 0 012.59-4.18l-1.64-2.88a.97.97 0 01.34-1.32l11.53-6.76a.94.94 0 011.3.35l14.24 25.08a.97.97 0 01-.34 1.32l-.76.45c-.01 0-.01.01-.02.02l-1.7.99 3.33 5.85a.97.97 0 01-.35 1.32l-4.92 2.9a.94.94 0 01-1.3-.36l-3.33-5.86-2.47 1.45a.94.94 0 01-1.3-.35l-6-10.56c-.03 0-.06.01-.08.02-.13.06-.26.1-.4.15-.13.05-.28.1-.42.15-.15.04-.28.06-.41.1-.14.03-.29.06-.44.08-.15.02-.28.03-.42.04-.14 0-.28.02-.43.03-.03 0-.05 0-.08 0-.07 0-.15-.02-.22-.02a6.28 6.28 0 01-1.62-.26c-.11-.03-.22-.07-.34-.1-.2-.08-.41-.17-.61-.26-.1-.05-.2-.09-.28-.13-.1-.05-.18-.1-.26-.15a16.55 16.55 0 00-1.23 26.03h35.1a4.8 4.8 0 014.75 4.83v3.86c0 .53-.43.96-.95.96h-55.1a.96.96 0 01-.95-.96v-3.86a4.8 4.8 0 014.75-4.83zm33.9-12.17l3.28-1.93-2.85-5.01-3.28 1.93 2.85 5.01zm-7.1-4.75l2.6-1.52 4.8-2.82c.02-.01.03-.01.04-.02l2.44-1.43-13.3-23.41-9.87 5.79 1.2 2.1c.03-.02.07-.02.11-.04.14-.05.28-.08.42-.12.2-.05.4-.1.61-.14.15-.03.3-.04.45-.06a7.54 7.54 0 011.06-.03 6.86 6.86 0 011.6.3c.14.05.29.1.43.15.2.08.37.17.55.26.13.07.27.13.4.2.19.13.37.26.55.4.1.07.21.14.31.22a6.63 6.63 0 011.52 1.84 6.8 6.8 0 01-1.14 8.22c-.09.08-.17.17-.26.25-.03.02-.05.05-.07.07l5.56 9.79zM62.12 51.13a4.73 4.73 0 006.5 1.76 4.87 4.87 0 00.52-7.99c-.08-.06-.16-.1-.23-.16a4.73 4.73 0 00-1.58-.72c-.03 0-.07-.02-.1-.03a4.66 4.66 0 00-3.15.43c-.04.02-.09.04-.13.06a4.87 4.87 0 00-1.83 6.66zm-15.7 37.18h53.2v-2.9c0-1.6-1.28-2.9-2.85-2.9H61.32a.94.94 0 01-.6-.2 18.53 18.53 0 01.61-29.01c0-.01-.01-.02-.02-.03-.1-.12-.2-.24-.3-.36-.05-.07-.1-.13-.15-.2a6.83 6.83 0 01-.32-.5 7.03 7.03 0 01-.5-1.01c-.01-.05-.03-.09-.05-.13-.1-.3-.2-.6-.26-.9-.01-.06-.02-.11-.03-.17-.02-.07-.04-.15-.05-.23A22.4 22.4 0 0054.33 81a.97.97 0 01-.22 1.35.93.93 0 01-.55.18h-4.3a2.87 2.87 0 00-2.85 2.9v2.9z"/><path fill="#FFF" d="M79.66 76.73h15.2c.52 0 .95.43.95.96 0 .54-.43.97-.95.97h-15.2a.96.96 0 01-.95-.97c0-.53.43-.96.95-.96z"/><path stroke="#FFF" stroke-linecap="round" stroke-linejoin="round" stroke-width="2" d="M46.49 93.82h6M56 93.82h19"/></g></svg>