<svg xmlns="http://www.w3.org/2000/svg" width="143.78" height="145.157" preserveAspectRatio="xMidYMid"><defs><linearGradient id="a" x1="71.81" x2="71.81" y1="140.031" y2=".001" gradientUnits="userSpaceOnUse"><stop offset="0" stop-color="#faede0"/><stop offset="1" stop-color="#fef4da"/></linearGradient><linearGradient id="b" x1="2.39" x2="141.39" y1="145.157" y2="6.157" gradientUnits="userSpaceOnUse"><stop offset="0" stop-color="#e8aa5e"/><stop offset=".01" stop-color="#e8aa5e"/><stop offset="1" stop-color="#f9c846"/></linearGradient></defs><path fill="url(#a)" fill-rule="evenodd" d="M141.2 78.77c-2.98 18.02-19.32 27.88-28.83 32.73-9.5 4.85-23.58 10.29-51.44 23.96-27.85 13.66-43.6-7.06-48.17-13.53-2.07-2.93-11-22.57-10.96-39.41.03-15.63 9.84-60.16 45.91-76.5 31.93-14.45 48.15 1.1 54.12 5.47 5.11 3.75 45.36 31.2 39.38 67.28z"/><path fill="url(#b)" fill-rule="evenodd" d="M124.07 114.95c9.89-15.06 28.4-44.65 15.04-66.57-11.38-18.68-27.93-32-54.34-38.94-27.47-7.2-45.5-1.9-62.96 9.58-49.57 32.55-1.74 70.72 17.18 99.13 23.92 35.92 47.42 25.83 49.4 25.35 3-.72 22.7-8.78 35.68-28.55z"/><path fill="#fff" fill-rule="evenodd" d="M63.81 64.47l-11.84.01c-1.13 0-2.16.82-2.16 1.99v22l-1.94.04c-1.14 0-2.05.94-2.05 2.11v12.72c0 1.17.91 2.12 2.05 2.12h6.94c1.13 0 2-.82 2-2v-3h17v3c0 1.18.87 2 2 2h7c1.13 0 2-.82 2-2v-3h17v3c0 1.18.87 2 2 2h6.94c1.13 0 2.05-.95 2.05-2.12V90.62c0-1.17-.92-2.11-2.05-2.11l-1.94-.04s-.1-21.87-.02-21.8c.02-1.14-1-2.19-2.14-2.19H95.03m10.78 2.99v21h-25v-21h25zm-14.88-2.99l-24.12-.01m-14 3h25v21h-25v-21zm57 35h-5v-3c0-1.17-.87-2-2-2h-19c-1.13 0-2 .83-2 2v2h-5v-2c0-1.17-.87-2-2-2h-19c-1.13 0-2 .83-2 2v3h-5v-11h61v11zm-15-38v-22c0-1.16-.87-2-2-2h-27c-1.13 0-2 .84-2 2v22m3 0v-21h25v21"/></svg>