<svg xmlns="http://www.w3.org/2000/svg" width="131.062" height="145.281" preserveAspectRatio="xMidYMid"><defs><linearGradient id="a" x1="65.843" x2="65.843" y1="142.218" gradientUnits="userSpaceOnUse"><stop offset="0" stop-color="#dadff4"/><stop offset="1" stop-color="#ebddf3"/></linearGradient><linearGradient id="b" x1="76.836" x2="54.226" y1="145.281" y2="2.531" gradientUnits="userSpaceOnUse"><stop offset="0" stop-color="#2f60c8"/><stop offset="1" stop-color="#9657c1"/></linearGradient></defs><path fill="url(#a)" fill-rule="evenodd" d="M129.5 92.09c4.22-17.4-6.52-32.09-13.1-39.83-6.58-7.73-16.99-17.61-36.48-39.79-19.5-22.18-41.33-8.9-47.85-4.63-2.95 1.92-18.33 16.62-24.7 31.92C1.45 53.95-6.8 97.8 18.97 125.28c22.8 24.32 43.1 15.9 50.04 14.03 5.96-1.6 52.07-12.4 60.5-47.23z"/><path fill="url(#b)" fill-rule="evenodd" d="M54.72 141.96C37.53 136.55 3.9 125.4.97 99.9c-2.94-25.5.39-41.92 17.48-64.53C35.58 12.71 52.5 5.14 73.28 2.98c58.99-6.12 46.06 53.7 49.37 87.67 4.18 42.96-20.4 50-22.24 50.87-2.78 1.35-23.14 7.55-45.7.45z"/><path fill="#fff" fill-rule="evenodd" d="M63.9 92.66c-5.24 0-9.06-3.73-9.02-8.92.03-5.18 3.87-9 9.1-9.03 5.25-.04 8.93 3.76 8.93 8.95 0 5.18-3.76 9-9 9zm0-16c-3.25 0-7 2.62-7 7 0 4.02 2.26 7 7 7 4.16 0 7-3.01 7-7 0-3.87-2.95-7-7-7zm-38 13h21c0-4.22-3.98-6-7-6h-14v-2h12c7.03 0 11 2.04 11 8v2h-23v-2zm43 10v2l-43-.01v-2h43z"/><path fill="none" stroke="#fff" stroke-width="2" d="M42.9 75.16c0-11.53 5.83-21.7 14.7-27.73m3.9-2.29a33.27 33.27 0 014.26-1.76m4.47-1.16a33.83 33.83 0 016.18-.56M50.9 75.16a25.5 25.5 0 1125.5 25.5"/></svg>