<?xml version="1.0" standalone="no"?><svg xmlns="http://www.w3.org/2000/svg" viewBox="0 0 1440 320"><path fill="#0099ff" fill-opacity="1" d="M0,288L14.1,272C28.2,256,56,224,85,218.7C112.9,213,141,235,169,213.3C197.6,192,226,128,254,138.7C282.4,149,311,235,339,245.3C367.1,256,395,192,424,176C451.8,160,480,192,508,213.3C536.5,235,565,245,593,250.7C621.2,256,649,256,678,229.3C705.9,203,734,149,762,149.3C790.6,149,819,203,847,197.3C875.3,192,904,128,932,106.7C960,85,988,107,1016,144C1044.7,181,1073,235,1101,224C1129.4,213,1158,139,1186,133.3C1214.1,128,1242,192,1271,208C1298.8,224,1327,192,1355,197.3C1383.5,203,1412,245,1426,266.7L1440,288L1440,320L1425.9,320C1411.8,320,1384,320,1355,320C1327.1,320,1299,320,1271,320C1242.4,320,1214,320,1186,320C1157.6,320,1129,320,1101,320C1072.9,320,1045,320,1016,320C988.2,320,960,320,932,320C903.5,320,875,320,847,320C818.8,320,791,320,762,320C734.1,320,706,320,678,320C649.4,320,621,320,593,320C564.7,320,536,320,508,320C480,320,452,320,424,320C395.3,320,367,320,339,320C310.6,320,282,320,254,320C225.9,320,198,320,169,320C141.2,320,113,320,85,320C56.5,320,28,320,14,320L0,320Z"></path></svg>