<?xml version="1.0" standalone="no"?><svg xmlns="http://www.w3.org/2000/svg" viewBox="0 0 1440 320"><path fill="#0099ff" fill-opacity="1" d="M0,96L9.6,96C19.2,96,38,96,58,117.3C76.8,139,96,181,115,170.7C134.4,160,154,96,173,90.7C192,85,211,139,230,144C249.6,149,269,107,288,101.3C307.2,96,326,128,346,149.3C364.8,171,384,181,403,154.7C422.4,128,442,64,461,64C480,64,499,128,518,176C537.6,224,557,256,576,250.7C595.2,245,614,203,634,176C652.8,149,672,139,691,138.7C710.4,139,730,149,749,165.3C768,181,787,203,806,197.3C825.6,192,845,160,864,144C883.2,128,902,128,922,144C940.8,160,960,192,979,176C998.4,160,1018,96,1037,69.3C1056,43,1075,53,1094,90.7C1113.6,128,1133,192,1152,218.7C1171.2,245,1190,235,1210,197.3C1228.8,160,1248,96,1267,85.3C1286.4,75,1306,117,1325,154.7C1344,192,1363,224,1382,234.7C1401.6,245,1421,235,1430,229.3L1440,224L1440,320L1430.4,320C1420.8,320,1402,320,1382,320C1363.2,320,1344,320,1325,320C1305.6,320,1286,320,1267,320C1248,320,1229,320,1210,320C1190.4,320,1171,320,1152,320C1132.8,320,1114,320,1094,320C1075.2,320,1056,320,1037,320C1017.6,320,998,320,979,320C960,320,941,320,922,320C902.4,320,883,320,864,320C844.8,320,826,320,806,320C787.2,320,768,320,749,320C729.6,320,710,320,691,320C672,320,653,320,634,320C614.4,320,595,320,576,320C556.8,320,538,320,518,320C499.2,320,480,320,461,320C441.6,320,422,320,403,320C384,320,365,320,346,320C326.4,320,307,320,288,320C268.8,320,250,320,230,320C211.2,320,192,320,173,320C153.6,320,134,320,115,320C96,320,77,320,58,320C38.4,320,19,320,10,320L0,320Z"></path></svg>