<?xml version="1.0" standalone="no"?><svg xmlns="http://www.w3.org/2000/svg" viewBox="0 0 1440 320"><path fill="#0099ff" fill-opacity="0.5" d="M0,288L14.1,272C28.2,256,56,224,85,218.7C112.9,213,141,235,169,213.3C197.6,192,226,128,254,138.7C282.4,149,311,235,339,245.3C367.1,256,395,192,424,176C451.8,160,480,192,508,213.3C536.5,235,565,245,593,250.7C621.2,256,649,256,678,229.3C705.9,203,734,149,762,149.3C790.6,149,819,203,847,197.3C875.3,192,904,128,932,106.7C960,85,988,107,1016,144C1044.7,181,1073,235,1101,224C1129.4,213,1158,139,1186,133.3C1214.1,128,1242,192,1271,208C1298.8,224,1327,192,1355,197.3C1383.5,203,1412,245,1426,266.7L1440,288L1440,0L1425.9,0C1411.8,0,1384,0,1355,0C1327.1,0,1299,0,1271,0C1242.4,0,1214,0,1186,0C1157.6,0,1129,0,1101,0C1072.9,0,1045,0,1016,0C988.2,0,960,0,932,0C903.5,0,875,0,847,0C818.8,0,791,0,762,0C734.1,0,706,0,678,0C649.4,0,621,0,593,0C564.7,0,536,0,508,0C480,0,452,0,424,0C395.3,0,367,0,339,0C310.6,0,282,0,254,0C225.9,0,198,0,169,0C141.2,0,113,0,85,0C56.5,0,28,0,14,0L0,0Z"></path></svg>