<?xml version="1.0" standalone="no"?><svg xmlns="http://www.w3.org/2000/svg" viewBox="0 0 1440 320"><path fill="#0099ff" fill-opacity="1" d="M0,32L6.2,69.3C12.3,107,25,181,37,192C49.2,203,62,149,74,106.7C86.2,64,98,32,111,64C123.1,96,135,192,148,218.7C160,245,172,203,185,170.7C196.9,139,209,117,222,106.7C233.8,96,246,96,258,117.3C270.8,139,283,181,295,181.3C307.7,181,320,139,332,144C344.6,149,357,203,369,240C381.5,277,394,299,406,288C418.5,277,431,235,443,186.7C455.4,139,468,85,480,90.7C492.3,96,505,160,517,186.7C529.2,213,542,203,554,208C566.2,213,578,235,591,218.7C603.1,203,615,149,628,133.3C640,117,652,139,665,149.3C676.9,160,689,160,702,181.3C713.8,203,726,245,738,234.7C750.8,224,763,160,775,112C787.7,64,800,32,812,53.3C824.6,75,837,149,849,154.7C861.5,160,874,96,886,96C898.5,96,911,160,923,176C935.4,192,948,160,960,128C972.3,96,985,64,997,64C1009.2,64,1022,96,1034,138.7C1046.2,181,1058,235,1071,256C1083.1,277,1095,267,1108,234.7C1120,203,1132,149,1145,117.3C1156.9,85,1169,75,1182,90.7C1193.8,107,1206,149,1218,181.3C1230.8,213,1243,235,1255,229.3C1267.7,224,1280,192,1292,192C1304.6,192,1317,224,1329,245.3C1341.5,267,1354,277,1366,250.7C1378.5,224,1391,160,1403,144C1415.4,128,1428,160,1434,176L1440,192L1440,320L1433.8,320C1427.7,320,1415,320,1403,320C1390.8,320,1378,320,1366,320C1353.8,320,1342,320,1329,320C1316.9,320,1305,320,1292,320C1280,320,1268,320,1255,320C1243.1,320,1231,320,1218,320C1206.2,320,1194,320,1182,320C1169.2,320,1157,320,1145,320C1132.3,320,1120,320,1108,320C1095.4,320,1083,320,1071,320C1058.5,320,1046,320,1034,320C1021.5,320,1009,320,997,320C984.6,320,972,320,960,320C947.7,320,935,320,923,320C910.8,320,898,320,886,320C873.8,320,862,320,849,320C836.9,320,825,320,812,320C800,320,788,320,775,320C763.1,320,751,320,738,320C726.2,320,714,320,702,320C689.2,320,677,320,665,320C652.3,320,640,320,628,320C615.4,320,603,320,591,320C578.5,320,566,320,554,320C541.5,320,529,320,517,320C504.6,320,492,320,480,320C467.7,320,455,320,443,320C430.8,320,418,320,406,320C393.8,320,382,320,369,320C356.9,320,345,320,332,320C320,320,308,320,295,320C283.1,320,271,320,258,320C246.2,320,234,320,222,320C209.2,320,197,320,185,320C172.3,320,160,320,148,320C135.4,320,123,320,111,320C98.5,320,86,320,74,320C61.5,320,49,320,37,320C24.6,320,12,320,6,320L0,320Z"></path></svg>