<?xml version="1.0" standalone="no"?><svg xmlns="http://www.w3.org/2000/svg" viewBox="0 0 1440 320"><path fill="#0099ff" fill-opacity="1" d="M0,0L9.6,32C19.2,64,38,128,58,154.7C76.8,181,96,171,115,176C134.4,181,154,203,173,181.3C192,160,211,96,230,90.7C249.6,85,269,139,288,160C307.2,181,326,171,346,149.3C364.8,128,384,96,403,117.3C422.4,139,442,213,461,245.3C480,277,499,267,518,234.7C537.6,203,557,149,576,128C595.2,107,614,117,634,128C652.8,139,672,149,691,149.3C710.4,149,730,139,749,154.7C768,171,787,213,806,197.3C825.6,181,845,107,864,85.3C883.2,64,902,96,922,96C940.8,96,960,64,979,80C998.4,96,1018,160,1037,170.7C1056,181,1075,139,1094,138.7C1113.6,139,1133,181,1152,213.3C1171.2,245,1190,267,1210,256C1228.8,245,1248,203,1267,192C1286.4,181,1306,203,1325,186.7C1344,171,1363,117,1382,85.3C1401.6,53,1421,43,1430,37.3L1440,32L1440,320L1430.4,320C1420.8,320,1402,320,1382,320C1363.2,320,1344,320,1325,320C1305.6,320,1286,320,1267,320C1248,320,1229,320,1210,320C1190.4,320,1171,320,1152,320C1132.8,320,1114,320,1094,320C1075.2,320,1056,320,1037,320C1017.6,320,998,320,979,320C960,320,941,320,922,320C902.4,320,883,320,864,320C844.8,320,826,320,806,320C787.2,320,768,320,749,320C729.6,320,710,320,691,320C672,320,653,320,634,320C614.4,320,595,320,576,320C556.8,320,538,320,518,320C499.2,320,480,320,461,320C441.6,320,422,320,403,320C384,320,365,320,346,320C326.4,320,307,320,288,320C268.8,320,250,320,230,320C211.2,320,192,320,173,320C153.6,320,134,320,115,320C96,320,77,320,58,320C38.4,320,19,320,10,320L0,320Z"></path></svg>