<?xml version="1.0" standalone="no"?><svg xmlns="http://www.w3.org/2000/svg" viewBox="0 0 1440 320"><path fill="#0099ff" fill-opacity="1" d="M0,32L6.2,69.3C12.3,107,25,181,37,192C49.2,203,62,149,74,106.7C86.2,64,98,32,111,64C123.1,96,135,192,148,218.7C160,245,172,203,185,170.7C196.9,139,209,117,222,106.7C233.8,96,246,96,258,117.3C270.8,139,283,181,295,181.3C307.7,181,320,139,332,144C344.6,149,357,203,369,240C381.5,277,394,299,406,288C418.5,277,431,235,443,186.7C455.4,139,468,85,480,90.7C492.3,96,505,160,517,186.7C529.2,213,542,203,554,208C566.2,213,578,235,591,218.7C603.1,203,615,149,628,133.3C640,117,652,139,665,149.3C676.9,160,689,160,702,181.3C713.8,203,726,245,738,234.7C750.8,224,763,160,775,112C787.7,64,800,32,812,53.3C824.6,75,837,149,849,154.7C861.5,160,874,96,886,96C898.5,96,911,160,923,176C935.4,192,948,160,960,128C972.3,96,985,64,997,64C1009.2,64,1022,96,1034,138.7C1046.2,181,1058,235,1071,256C1083.1,277,1095,267,1108,234.7C1120,203,1132,149,1145,117.3C1156.9,85,1169,75,1182,90.7C1193.8,107,1206,149,1218,181.3C1230.8,213,1243,235,1255,229.3C1267.7,224,1280,192,1292,192C1304.6,192,1317,224,1329,245.3C1341.5,267,1354,277,1366,250.7C1378.5,224,1391,160,1403,144C1415.4,128,1428,160,1434,176L1440,192L1440,0L1433.8,0C1427.7,0,1415,0,1403,0C1390.8,0,1378,0,1366,0C1353.8,0,1342,0,1329,0C1316.9,0,1305,0,1292,0C1280,0,1268,0,1255,0C1243.1,0,1231,0,1218,0C1206.2,0,1194,0,1182,0C1169.2,0,1157,0,1145,0C1132.3,0,1120,0,1108,0C1095.4,0,1083,0,1071,0C1058.5,0,1046,0,1034,0C1021.5,0,1009,0,997,0C984.6,0,972,0,960,0C947.7,0,935,0,923,0C910.8,0,898,0,886,0C873.8,0,862,0,849,0C836.9,0,825,0,812,0C800,0,788,0,775,0C763.1,0,751,0,738,0C726.2,0,714,0,702,0C689.2,0,677,0,665,0C652.3,0,640,0,628,0C615.4,0,603,0,591,0C578.5,0,566,0,554,0C541.5,0,529,0,517,0C504.6,0,492,0,480,0C467.7,0,455,0,443,0C430.8,0,418,0,406,0C393.8,0,382,0,369,0C356.9,0,345,0,332,0C320,0,308,0,295,0C283.1,0,271,0,258,0C246.2,0,234,0,222,0C209.2,0,197,0,185,0C172.3,0,160,0,148,0C135.4,0,123,0,111,0C98.5,0,86,0,74,0C61.5,0,49,0,37,0C24.6,0,12,0,6,0L0,0Z"></path></svg>