<?xml version="1.0" standalone="no"?><svg xmlns="http://www.w3.org/2000/svg" viewBox="0 0 1440 320"><path fill="#0099ff" fill-opacity="1" d="M0,96L9.6,96C19.2,96,38,96,58,117.3C76.8,139,96,181,115,170.7C134.4,160,154,96,173,90.7C192,85,211,139,230,144C249.6,149,269,107,288,101.3C307.2,96,326,128,346,149.3C364.8,171,384,181,403,154.7C422.4,128,442,64,461,64C480,64,499,128,518,176C537.6,224,557,256,576,250.7C595.2,245,614,203,634,176C652.8,149,672,139,691,138.7C710.4,139,730,149,749,165.3C768,181,787,203,806,197.3C825.6,192,845,160,864,144C883.2,128,902,128,922,144C940.8,160,960,192,979,176C998.4,160,1018,96,1037,69.3C1056,43,1075,53,1094,90.7C1113.6,128,1133,192,1152,218.7C1171.2,245,1190,235,1210,197.3C1228.8,160,1248,96,1267,85.3C1286.4,75,1306,117,1325,154.7C1344,192,1363,224,1382,234.7C1401.6,245,1421,235,1430,229.3L1440,224L1440,0L1430.4,0C1420.8,0,1402,0,1382,0C1363.2,0,1344,0,1325,0C1305.6,0,1286,0,1267,0C1248,0,1229,0,1210,0C1190.4,0,1171,0,1152,0C1132.8,0,1114,0,1094,0C1075.2,0,1056,0,1037,0C1017.6,0,998,0,979,0C960,0,941,0,922,0C902.4,0,883,0,864,0C844.8,0,826,0,806,0C787.2,0,768,0,749,0C729.6,0,710,0,691,0C672,0,653,0,634,0C614.4,0,595,0,576,0C556.8,0,538,0,518,0C499.2,0,480,0,461,0C441.6,0,422,0,403,0C384,0,365,0,346,0C326.4,0,307,0,288,0C268.8,0,250,0,230,0C211.2,0,192,0,173,0C153.6,0,134,0,115,0C96,0,77,0,58,0C38.4,0,19,0,10,0L0,0Z"></path></svg>